<svg xmlns="http://www.w3.org/2000/svg" viewBox="0 0 171 118.5"><defs><style>.cls-1,.cls-2{fill:#fff;}.cls-1{stroke:#000;stroke-linecap:round;stroke-miterlimit:10;}</style></defs><title>label_pp</title><g id="Layer_2" data-name="Layer 2"><g id="bgandline"><rect id="bg" x="100.5" width="70.5" height="18"/><line id="line" class="cls-1" x1="102.5" y1="16" x2="0.5" y2="118"/></g><g id="text"><path class="cls-2" d="M105.93,13.5V4.91h3.24a7.82,7.82,0,0,1,1.31.08,2.59,2.59,0,0,1,1.06.4,2.11,2.11,0,0,1,.69.83,2.63,2.63,0,0,1,.26,1.17,2.64,2.64,0,0,1-.7,1.85,3.34,3.34,0,0,1-2.52.76h-2.2V13.5ZM107.06,9h2.22a2.36,2.36,0,0,0,1.56-.41,1.46,1.46,0,0,0,.46-1.15,1.55,1.55,0,0,0-.27-.92,1.27,1.27,0,0,0-.72-.51,4.86,4.86,0,0,0-1.06-.08h-2.2Z"/><path class="cls-2" d="M113.8,6.12V4.91h1.05V6.12Zm0,7.38V7.28h1.05V13.5Z"/><path class="cls-2" d="M116.47,13.5V4.91h1.05v4.9L120,7.28h1.37L119,9.59l2.62,3.91h-1.3l-2.06-3.18-.74.71V13.5Z"/><path class="cls-2" d="M126.72,11.5l1.09.13a2.66,2.66,0,0,1-1,1.48,3.24,3.24,0,0,1-3.95-.31,3.29,3.29,0,0,1-.8-2.36A3.44,3.44,0,0,1,122.92,8a2.74,2.74,0,0,1,2.1-.87,2.66,2.66,0,0,1,2,.85,3.38,3.38,0,0,1,.79,2.39q0,.09,0,.28H123.2a2.39,2.39,0,0,0,.58,1.57,1.73,1.73,0,0,0,1.3.54,1.61,1.61,0,0,0,1-.3A2,2,0,0,0,126.72,11.5Zm-3.46-1.71h3.47a2.11,2.11,0,0,0-.4-1.18A1.62,1.62,0,0,0,125,8a1.68,1.68,0,0,0-1.22.49A1.92,1.92,0,0,0,123.26,9.79Z"/><path class="cls-2" d="M128.71,11.64l1-.16a1.46,1.46,0,0,0,.49,1,1.71,1.71,0,0,0,1.12.33,1.65,1.65,0,0,0,1.08-.3.88.88,0,0,0,.35-.69.64.64,0,0,0-.31-.56,4.57,4.57,0,0,0-1.08-.36,9.84,9.84,0,0,1-1.61-.51,1.54,1.54,0,0,1-.91-1.43,1.6,1.6,0,0,1,.19-.77,1.71,1.71,0,0,1,.52-.59,2.17,2.17,0,0,1,.67-.31,3.19,3.19,0,0,1,.91-.13,3.6,3.6,0,0,1,1.29.21,1.75,1.75,0,0,1,.82.57,2.23,2.23,0,0,1,.36,1l-1,.14a1.13,1.13,0,0,0-.41-.75,1.49,1.49,0,0,0-1-.27,1.72,1.72,0,0,0-1,.24.7.7,0,0,0-.31.56.58.58,0,0,0,.13.37.93.93,0,0,0,.4.28l.93.27a13,13,0,0,1,1.56.49,1.58,1.58,0,0,1,.69.55,1.55,1.55,0,0,1,.25.9,1.77,1.77,0,0,1-.31,1,2,2,0,0,1-.89.72,3.23,3.23,0,0,1-1.31.25,2.92,2.92,0,0,1-1.85-.5A2.34,2.34,0,0,1,128.71,11.64Z"/><path class="cls-2" d="M138.6,13.5V4.91h3.24a7.82,7.82,0,0,1,1.31.08,2.59,2.59,0,0,1,1.06.4,2.11,2.11,0,0,1,.69.83,2.63,2.63,0,0,1,.26,1.17,2.64,2.64,0,0,1-.7,1.85,3.34,3.34,0,0,1-2.52.76h-2.2V13.5ZM139.74,9H142a2.36,2.36,0,0,0,1.56-.41A1.46,1.46,0,0,0,144,7.43a1.55,1.55,0,0,0-.27-.92A1.27,1.27,0,0,0,143,6a4.86,4.86,0,0,0-1.06-.08h-2.2Z"/><path class="cls-2" d="M150.73,11.5l1.09.13a2.66,2.66,0,0,1-1,1.48,3.24,3.24,0,0,1-3.95-.31,3.29,3.29,0,0,1-.8-2.36A3.44,3.44,0,0,1,146.93,8a2.74,2.74,0,0,1,2.1-.87,2.66,2.66,0,0,1,2,.85,3.38,3.38,0,0,1,.79,2.39q0,.09,0,.28h-4.64a2.39,2.39,0,0,0,.58,1.57,1.73,1.73,0,0,0,1.3.54,1.61,1.61,0,0,0,1-.3A2,2,0,0,0,150.73,11.5Zm-3.46-1.71h3.47a2.11,2.11,0,0,0-.4-1.18A1.62,1.62,0,0,0,149,8a1.68,1.68,0,0,0-1.22.49A1.92,1.92,0,0,0,147.27,9.79Z"/><path class="cls-2" d="M157.21,12.73a3.93,3.93,0,0,1-1.13.7,3.26,3.26,0,0,1-1.16.21,2.26,2.26,0,0,1-1.58-.5,1.65,1.65,0,0,1-.55-1.28A1.7,1.7,0,0,1,153,11a1.72,1.72,0,0,1,.54-.61,2.56,2.56,0,0,1,.76-.35,7.54,7.54,0,0,1,.94-.16,9.64,9.64,0,0,0,1.88-.36q0-.22,0-.28a1.16,1.16,0,0,0-.3-.91,1.77,1.77,0,0,0-1.2-.36,1.86,1.86,0,0,0-1.1.26,1.59,1.59,0,0,0-.52.92l-1-.14A2.56,2.56,0,0,1,153.43,8a2,2,0,0,1,.93-.63,4.16,4.16,0,0,1,1.41-.22,3.74,3.74,0,0,1,1.29.19,1.71,1.71,0,0,1,.73.47,1.66,1.66,0,0,1,.33.72,5.94,5.94,0,0,1,.05,1v1.41a14.93,14.93,0,0,0,.07,1.86,2.35,2.35,0,0,0,.27.75h-1.1A2.24,2.24,0,0,1,157.21,12.73Zm-.09-2.36a7.74,7.74,0,0,1-1.72.4,4,4,0,0,0-.92.21.92.92,0,0,0-.42.34.93.93,0,0,0,.17,1.2,1.37,1.37,0,0,0,.93.28,2.18,2.18,0,0,0,1.08-.27,1.64,1.64,0,0,0,.7-.73,2.55,2.55,0,0,0,.17-1.05Z"/><path class="cls-2" d="M159.83,13.5V4.91h1.05v4.9l2.5-2.53h1.37l-2.38,2.31L165,13.5h-1.3l-2.06-3.18-.74.71V13.5Z"/></g></g></svg>