<svg xmlns="http://www.w3.org/2000/svg" viewBox="0 0 184 118.5"><defs><style>.cls-1,.cls-2{fill:#fff;}.cls-1{stroke:#000;stroke-linecap:round;stroke-miterlimit:10;}</style></defs><title>label_am</title><g id="Layer_2" data-name="Layer 2"><g id="bgandline"><rect id="bg" x="100.5" width="83.5" height="18"/><line id="line" class="cls-1" x1="102.5" y1="16" x2="0.5" y2="118"/></g><g id="text"><path class="cls-2" d="M105,13.5l3.3-8.59h1.22L113,13.5h-1.29l-1-2.6h-3.59l-.94,2.6ZM107.46,10h2.91l-.9-2.38q-.41-1.08-.61-1.78a11,11,0,0,1-.46,1.64Z"/><path class="cls-2" d="M117.87,13.5v-.91a2.28,2.28,0,0,1-2,1.05,2.52,2.52,0,0,1-1-.21,1.69,1.69,0,0,1-.71-.53,2,2,0,0,1-.33-.78,5.36,5.36,0,0,1-.06-1V7.28h1.05v3.45a6.15,6.15,0,0,0,.06,1.11,1.1,1.1,0,0,0,.42.65,1.31,1.31,0,0,0,.8.24,1.74,1.74,0,0,0,.89-.24,1.35,1.35,0,0,0,.59-.66,3.32,3.32,0,0,0,.17-1.22V7.28h1.05V13.5Z"/><path class="cls-2" d="M122.77,12.56l.15.93a3.91,3.91,0,0,1-.8.09,1.8,1.8,0,0,1-.89-.18,1,1,0,0,1-.45-.48,3.78,3.78,0,0,1-.13-1.25V8.1h-.77V7.28h.77V5.74l1-.63V7.28h1.06V8.1h-1.06v3.64a1.84,1.84,0,0,0,.06.58.44.44,0,0,0,.18.21.7.7,0,0,0,.36.08A3.43,3.43,0,0,0,122.77,12.56Z"/><path class="cls-2" d="M123.41,10.39a3.21,3.21,0,0,1,1-2.56,2.9,2.9,0,0,1,2-.69,2.79,2.79,0,0,1,2.1.84,3.2,3.2,0,0,1,.81,2.32,4.12,4.12,0,0,1-.36,1.89,2.55,2.55,0,0,1-1,1.07,3.05,3.05,0,0,1-1.5.38,2.8,2.8,0,0,1-2.11-.84A3.35,3.35,0,0,1,123.41,10.39Zm1.08,0a2.65,2.65,0,0,0,.52,1.79,1.74,1.74,0,0,0,2.62,0,2.71,2.71,0,0,0,.52-1.82,2.57,2.57,0,0,0-.52-1.75,1.74,1.74,0,0,0-2.62,0A2.64,2.64,0,0,0,124.49,10.39Z"/><path class="cls-2" d="M133.91,13.5V4.91h1.71l2,6.08q.28.85.41,1.27.15-.47.46-1.38l2.06-6h1.53V13.5H141V6.31l-2.5,7.19h-1L135,6.19V13.5Z"/><path class="cls-2" d="M147.88,13.5v-.91a2.28,2.28,0,0,1-2,1.05,2.52,2.52,0,0,1-1-.21,1.69,1.69,0,0,1-.71-.53,2,2,0,0,1-.33-.78,5.36,5.36,0,0,1-.06-1V7.28h1.05v3.45a6.15,6.15,0,0,0,.06,1.11,1.1,1.1,0,0,0,.42.65,1.31,1.31,0,0,0,.8.24,1.74,1.74,0,0,0,.89-.24,1.35,1.35,0,0,0,.59-.66,3.32,3.32,0,0,0,.17-1.22V7.28h1.05V13.5Z"/><path class="cls-2" d="M150.06,11.64l1-.16a1.46,1.46,0,0,0,.49,1,1.71,1.71,0,0,0,1.12.33,1.65,1.65,0,0,0,1.08-.3.88.88,0,0,0,.35-.69.64.64,0,0,0-.31-.56,4.57,4.57,0,0,0-1.08-.36,9.84,9.84,0,0,1-1.61-.51,1.54,1.54,0,0,1-.91-1.43,1.6,1.6,0,0,1,.19-.77,1.71,1.71,0,0,1,.52-.59,2.17,2.17,0,0,1,.67-.31,3.19,3.19,0,0,1,.91-.13,3.6,3.6,0,0,1,1.29.21,1.75,1.75,0,0,1,.82.57,2.23,2.23,0,0,1,.36,1L154,9a1.13,1.13,0,0,0-.41-.75,1.49,1.49,0,0,0-1-.27,1.72,1.72,0,0,0-1,.24.7.7,0,0,0-.31.56.58.58,0,0,0,.13.37.93.93,0,0,0,.4.28l.93.27a13,13,0,0,1,1.56.49,1.58,1.58,0,0,1,.69.55,1.55,1.55,0,0,1,.25.9,1.77,1.77,0,0,1-.31,1,2,2,0,0,1-.89.72,3.23,3.23,0,0,1-1.31.25,2.92,2.92,0,0,1-1.85-.5A2.34,2.34,0,0,1,150.06,11.64Z"/><path class="cls-2" d="M160.74,11.5l1.09.13a2.66,2.66,0,0,1-1,1.48,3.24,3.24,0,0,1-3.95-.31,3.29,3.29,0,0,1-.8-2.36A3.44,3.44,0,0,1,156.94,8a2.74,2.74,0,0,1,2.1-.87,2.66,2.66,0,0,1,2,.85,3.38,3.38,0,0,1,.79,2.39q0,.09,0,.28h-4.64a2.39,2.39,0,0,0,.58,1.57,1.73,1.73,0,0,0,1.3.54,1.61,1.61,0,0,0,1-.3A2,2,0,0,0,160.74,11.5Zm-3.46-1.71h3.47a2.11,2.11,0,0,0-.4-1.18A1.62,1.62,0,0,0,159,8a1.68,1.68,0,0,0-1.22.49A1.92,1.92,0,0,0,157.28,9.79Z"/><path class="cls-2" d="M167.23,13.5v-.91a2.28,2.28,0,0,1-2,1.05,2.52,2.52,0,0,1-1-.21,1.69,1.69,0,0,1-.71-.53,2,2,0,0,1-.33-.78,5.36,5.36,0,0,1-.06-1V7.28h1.05v3.45a6.15,6.15,0,0,0,.06,1.11,1.1,1.1,0,0,0,.42.65,1.31,1.31,0,0,0,.8.24,1.74,1.74,0,0,0,.89-.24,1.35,1.35,0,0,0,.59-.66,3.32,3.32,0,0,0,.17-1.22V7.28h1.05V13.5Z"/><path class="cls-2" d="M169.83,13.5V7.28h.94v.87a2.22,2.22,0,0,1,.78-.74,2.19,2.19,0,0,1,1.11-.28,2,2,0,0,1,1.13.29,1.54,1.54,0,0,1,.62.8,2.23,2.23,0,0,1,1.92-1.09,1.89,1.89,0,0,1,1.42.51,2.19,2.19,0,0,1,.5,1.58V13.5h-1V9.58a2.89,2.89,0,0,0-.1-.91.88.88,0,0,0-.37-.45,1.16,1.16,0,0,0-.63-.17,1.47,1.47,0,0,0-1.09.44,1.92,1.92,0,0,0-.43,1.4V13.5h-1.05v-4a1.78,1.78,0,0,0-.26-1.05,1,1,0,0,0-.84-.35,1.53,1.53,0,0,0-.82.23,1.33,1.33,0,0,0-.55.69,3.86,3.86,0,0,0-.17,1.3V13.5Z"/></g></g></svg>