<svg xmlns="http://www.w3.org/2000/svg" viewBox="0 0 292 118.5"><defs><style>.cls-1,.cls-2{fill:#fff;}.cls-1{stroke:#000;stroke-linecap:round;stroke-miterlimit:10;}</style></defs><title>label1</title><g id="Layer_2" data-name="Layer 2"><g id="bgandline"><rect id="bg" x="100.5" width="191.5" height="18"/><line id="line" class="cls-1" x1="102.5" y1="16" x2="0.5" y2="118"/></g><g id="text"><path class="cls-2" d="M105.84,13.37V4.78h1.71l2,6.08q.28.85.41,1.27.15-.47.46-1.38l2.06-6H114v8.59h-1.1V6.18l-2.5,7.19h-1l-2.48-7.31v7.31Z"/><path class="cls-2" d="M119.8,12.6a3.93,3.93,0,0,1-1.13.7,3.26,3.26,0,0,1-1.16.21,2.26,2.26,0,0,1-1.58-.5,1.65,1.65,0,0,1-.55-1.28,1.7,1.7,0,0,1,.21-.83,1.72,1.72,0,0,1,.54-.61,2.56,2.56,0,0,1,.76-.35,7.54,7.54,0,0,1,.94-.16,9.64,9.64,0,0,0,1.88-.36q0-.22,0-.28a1.16,1.16,0,0,0-.3-.91,1.77,1.77,0,0,0-1.2-.36,1.86,1.86,0,0,0-1.1.26,1.59,1.59,0,0,0-.52.92l-1-.14A2.56,2.56,0,0,1,116,7.85a2,2,0,0,1,.93-.63A4.16,4.16,0,0,1,118.37,7a3.74,3.74,0,0,1,1.29.19,1.71,1.71,0,0,1,.73.47,1.66,1.66,0,0,1,.33.72,5.94,5.94,0,0,1,.05,1v1.41a14.93,14.93,0,0,0,.07,1.86,2.35,2.35,0,0,0,.27.75H120A2.24,2.24,0,0,1,119.8,12.6Zm-.09-2.36a7.74,7.74,0,0,1-1.72.4,4,4,0,0,0-.92.21.92.92,0,0,0-.42.34.93.93,0,0,0,.17,1.2,1.37,1.37,0,0,0,.93.28,2.18,2.18,0,0,0,1.08-.27,1.64,1.64,0,0,0,.7-.73,2.55,2.55,0,0,0,.17-1.05Z"/><path class="cls-2" d="M122.42,6V4.78h1.05V6Zm0,7.38V7.14h1.05v6.22Z"/><path class="cls-2" d="M125.08,13.37V7.14H126V8a2.24,2.24,0,0,1,2-1,2.6,2.6,0,0,1,1,.2,1.63,1.63,0,0,1,.71.53,2,2,0,0,1,.33.78,6,6,0,0,1,.06,1v3.83h-1.05V9.58a2.84,2.84,0,0,0-.12-1,1,1,0,0,0-.44-.51,1.39,1.39,0,0,0-.74-.19,1.71,1.71,0,0,0-1.16.43,2.11,2.11,0,0,0-.49,1.62v3.4Z"/><path class="cls-2" d="M135.06,13.37V4.78h1.05v8.59Z"/><path class="cls-2" d="M137.36,10.25a3.21,3.21,0,0,1,1-2.56,2.9,2.9,0,0,1,2-.69,2.79,2.79,0,0,1,2.1.84,3.2,3.2,0,0,1,.81,2.32,4.12,4.12,0,0,1-.36,1.89,2.55,2.55,0,0,1-1,1.07,3.05,3.05,0,0,1-1.5.38,2.8,2.8,0,0,1-2.11-.84A3.35,3.35,0,0,1,137.36,10.25Zm1.08,0A2.65,2.65,0,0,0,139,12a1.74,1.74,0,0,0,2.62,0,2.71,2.71,0,0,0,.52-1.82,2.57,2.57,0,0,0-.52-1.75,1.74,1.74,0,0,0-2.62,0A2.64,2.64,0,0,0,138.44,10.25Z"/><path class="cls-2" d="M145.4,13.37h-1V4.78h1.05V7.84A2.09,2.09,0,0,1,147.18,7a2.61,2.61,0,0,1,1.09.23,2.22,2.22,0,0,1,.84.65,3.14,3.14,0,0,1,.52,1,4.17,4.17,0,0,1,.19,1.27,3.55,3.55,0,0,1-.79,2.47,2.47,2.47,0,0,1-1.9.87,2,2,0,0,1-1.73-.92Zm0-3.16a3.23,3.23,0,0,0,.3,1.62,1.51,1.51,0,0,0,2.54.21,2.73,2.73,0,0,0,.5-1.79,2.78,2.78,0,0,0-.48-1.8,1.47,1.47,0,0,0-1.17-.58,1.52,1.52,0,0,0-1.2.6A2.64,2.64,0,0,0,145.39,10.21Z"/><path class="cls-2" d="M152.07,13.37h-1V4.78h1.05V7.84A2.09,2.09,0,0,1,153.85,7a2.61,2.61,0,0,1,1.09.23,2.22,2.22,0,0,1,.84.65,3.14,3.14,0,0,1,.52,1,4.17,4.17,0,0,1,.19,1.27,3.55,3.55,0,0,1-.79,2.47,2.47,2.47,0,0,1-1.9.87,2,2,0,0,1-1.73-.92Zm0-3.16a3.23,3.23,0,0,0,.3,1.62,1.51,1.51,0,0,0,2.54.21,2.73,2.73,0,0,0,.5-1.79,2.78,2.78,0,0,0-.48-1.8,1.47,1.47,0,0,0-1.17-.58,1.52,1.52,0,0,0-1.2.6A2.64,2.64,0,0,0,152.06,10.21Z"/><path class="cls-2" d="M157.73,15.76l-.12-1a2.35,2.35,0,0,0,.6.09,1.16,1.16,0,0,0,.56-.12,1,1,0,0,0,.35-.33,5.17,5.17,0,0,0,.32-.79l.09-.26-2.36-6.23h1.14l1.29,3.6q.25.69.45,1.44a14.19,14.19,0,0,1,.43-1.42l1.33-3.63h1.05l-2.37,6.33a12.42,12.42,0,0,1-.59,1.41,2.08,2.08,0,0,1-.64.76,1.52,1.52,0,0,1-.87.24A2.11,2.11,0,0,1,157.73,15.76Z"/><path class="cls-2" d="M172,12.35a3.6,3.6,0,0,1-1.14.87,3.08,3.08,0,0,1-1.33.29,2.63,2.63,0,0,1-2.09-.89,2.42,2.42,0,0,1-.63-1.62,2.25,2.25,0,0,1,.51-1.44,4.28,4.28,0,0,1,1.53-1.13,5.15,5.15,0,0,1-.77-1.08,1.9,1.9,0,0,1-.19-.8,1.79,1.79,0,0,1,.61-1.34A2.14,2.14,0,0,1,170,4.63a2,2,0,0,1,1.44.54A1.73,1.73,0,0,1,172,6.46q0,1.22-1.62,2.09l1.54,2a4.88,4.88,0,0,0,.41-1.2l1.1.23a6,6,0,0,1-.76,1.85A6.12,6.12,0,0,0,174,12.73l-.71.84A6.14,6.14,0,0,1,172,12.35Zm-.66-.83-1.93-2.4a3.7,3.7,0,0,0-1.15.95,1.53,1.53,0,0,0-.3.86,1.84,1.84,0,0,0,.42,1.08,1.38,1.38,0,0,0,1.18.56,2,2,0,0,0,1-.3A2.38,2.38,0,0,0,171.35,11.52Zm-1.48-3.64a2.81,2.81,0,0,0,.89-.71,1.19,1.19,0,0,0,.2-.67,1,1,0,0,0-.28-.72A.94.94,0,0,0,170,5.5a1,1,0,0,0-.71.28.9.9,0,0,0-.28.67,1,1,0,0,0,.1.42,2.19,2.19,0,0,0,.31.47Z"/><path class="cls-2" d="M182.5,12.6a3.93,3.93,0,0,1-1.13.7,3.26,3.26,0,0,1-1.16.21,2.26,2.26,0,0,1-1.58-.5,1.65,1.65,0,0,1-.55-1.28,1.7,1.7,0,0,1,.21-.83,1.72,1.72,0,0,1,.54-.61,2.56,2.56,0,0,1,.76-.35,7.54,7.54,0,0,1,.94-.16,9.64,9.64,0,0,0,1.88-.36q0-.22,0-.28a1.16,1.16,0,0,0-.3-.91,1.77,1.77,0,0,0-1.2-.36,1.86,1.86,0,0,0-1.1.26,1.59,1.59,0,0,0-.52.92l-1-.14a2.56,2.56,0,0,1,.46-1.07,2,2,0,0,1,.93-.63A4.16,4.16,0,0,1,181.07,7a3.74,3.74,0,0,1,1.29.19,1.71,1.71,0,0,1,.73.47,1.66,1.66,0,0,1,.33.72,5.94,5.94,0,0,1,.05,1v1.41a14.93,14.93,0,0,0,.07,1.86,2.35,2.35,0,0,0,.27.75h-1.1A2.24,2.24,0,0,1,182.5,12.6Zm-.09-2.36a7.74,7.74,0,0,1-1.72.4,4,4,0,0,0-.92.21.92.92,0,0,0-.42.34.93.93,0,0,0,.17,1.2,1.37,1.37,0,0,0,.93.28,2.18,2.18,0,0,0,1.08-.27,1.64,1.64,0,0,0,.7-.73,2.55,2.55,0,0,0,.17-1.05Z"/><path class="cls-2" d="M189.15,13.37v-.79a1.94,1.94,0,0,1-1.74.93A2.44,2.44,0,0,1,186,13.1a2.7,2.7,0,0,1-1-1.15,4,4,0,0,1-.34-1.69A4.42,4.42,0,0,1,185,8.57,2.45,2.45,0,0,1,186,7.41a2.49,2.49,0,0,1,1.39-.4,2.08,2.08,0,0,1,1.72.86V4.78h1v8.59Zm-3.33-3.11a2.7,2.7,0,0,0,.5,1.79,1.52,1.52,0,0,0,1.19.59,1.49,1.49,0,0,0,1.17-.57,2.61,2.61,0,0,0,.48-1.73,2.93,2.93,0,0,0-.49-1.87,1.51,1.51,0,0,0-1.21-.6,1.46,1.46,0,0,0-1.17.57A2.83,2.83,0,0,0,185.82,10.26Z"/><path class="cls-2" d="M191.79,13.37V7.14h.94V8a2.22,2.22,0,0,1,.78-.74A2.19,2.19,0,0,1,194.62,7a2,2,0,0,1,1.13.29,1.54,1.54,0,0,1,.62.8A2.23,2.23,0,0,1,198.3,7a1.89,1.89,0,0,1,1.42.51,2.19,2.19,0,0,1,.5,1.58v4.27h-1V9.45a2.89,2.89,0,0,0-.1-.91.88.88,0,0,0-.37-.45,1.16,1.16,0,0,0-.63-.17,1.47,1.47,0,0,0-1.09.44,1.92,1.92,0,0,0-.43,1.4v3.62h-1.05v-4a1.78,1.78,0,0,0-.26-1.05,1,1,0,0,0-.84-.35,1.53,1.53,0,0,0-.82.23,1.33,1.33,0,0,0-.55.69,3.86,3.86,0,0,0-.17,1.3v3.23Z"/><path class="cls-2" d="M201.79,6V4.78h1.05V6Zm0,7.38V7.14h1.05v6.22Z"/><path class="cls-2" d="M204.45,13.37V7.14h.95V8a2.24,2.24,0,0,1,2-1,2.6,2.6,0,0,1,1,.2,1.63,1.63,0,0,1,.71.53,2,2,0,0,1,.33.78,6,6,0,0,1,.06,1v3.83h-1.05V9.58a2.84,2.84,0,0,0-.12-1,1,1,0,0,0-.44-.51,1.39,1.39,0,0,0-.74-.19,1.71,1.71,0,0,0-1.16.43,2.11,2.11,0,0,0-.49,1.62v3.4Z"/><path class="cls-2" d="M211.13,6V4.78h1.05V6Zm0,7.38V7.14h1.05v6.22Z"/><path class="cls-2" d="M213.37,11.51l1-.16a1.46,1.46,0,0,0,.49,1,1.71,1.71,0,0,0,1.12.33,1.65,1.65,0,0,0,1.08-.3.88.88,0,0,0,.35-.69.64.64,0,0,0-.31-.56,4.57,4.57,0,0,0-1.08-.36,9.84,9.84,0,0,1-1.61-.51,1.54,1.54,0,0,1-.91-1.43,1.6,1.6,0,0,1,.19-.77,1.71,1.71,0,0,1,.52-.59,2.17,2.17,0,0,1,.67-.31,3.19,3.19,0,0,1,.91-.13,3.6,3.6,0,0,1,1.29.21,1.75,1.75,0,0,1,.82.57,2.23,2.23,0,0,1,.36,1l-1,.14a1.13,1.13,0,0,0-.41-.75,1.49,1.49,0,0,0-1-.27,1.72,1.72,0,0,0-1,.24.7.7,0,0,0-.31.56.58.58,0,0,0,.13.37.93.93,0,0,0,.4.28l.93.27a13,13,0,0,1,1.56.49,1.58,1.58,0,0,1,.69.55,1.55,1.55,0,0,1,.25.9,1.77,1.77,0,0,1-.31,1,2,2,0,0,1-.89.72,3.23,3.23,0,0,1-1.31.25,2.92,2.92,0,0,1-1.85-.5A2.34,2.34,0,0,1,213.37,11.51Z"/><path class="cls-2" d="M222.1,12.42l.15.93a3.91,3.91,0,0,1-.8.09,1.8,1.8,0,0,1-.89-.18,1,1,0,0,1-.45-.48,3.78,3.78,0,0,1-.13-1.25V8h-.77V7.14H220V5.6L221,5V7.14h1.06V8H221V11.6a1.84,1.84,0,0,0,.06.58.44.44,0,0,0,.18.21.7.7,0,0,0,.36.08A3.43,3.43,0,0,0,222.1,12.42Z"/><path class="cls-2" d="M223.12,13.37V7.14h.95v.94a2.57,2.57,0,0,1,.67-.87,1.17,1.17,0,0,1,.68-.21,2.06,2.06,0,0,1,1.08.34l-.36,1a1.51,1.51,0,0,0-.77-.23,1,1,0,0,0-.62.21,1.13,1.13,0,0,0-.39.58,4.11,4.11,0,0,0-.18,1.23v3.26Z"/><path class="cls-2" d="M231.18,12.6a3.93,3.93,0,0,1-1.13.7,3.26,3.26,0,0,1-1.16.21,2.26,2.26,0,0,1-1.58-.5,1.65,1.65,0,0,1-.55-1.28,1.7,1.7,0,0,1,.21-.83,1.72,1.72,0,0,1,.54-.61,2.56,2.56,0,0,1,.76-.35,7.54,7.54,0,0,1,.94-.16,9.64,9.64,0,0,0,1.88-.36q0-.22,0-.28a1.16,1.16,0,0,0-.3-.91,1.77,1.77,0,0,0-1.2-.36,1.86,1.86,0,0,0-1.1.26,1.59,1.59,0,0,0-.52.92l-1-.14a2.56,2.56,0,0,1,.46-1.07,2,2,0,0,1,.93-.63A4.16,4.16,0,0,1,229.75,7a3.74,3.74,0,0,1,1.29.19,1.71,1.71,0,0,1,.73.47,1.66,1.66,0,0,1,.33.72,5.94,5.94,0,0,1,.05,1v1.41a14.93,14.93,0,0,0,.07,1.86,2.35,2.35,0,0,0,.27.75h-1.1A2.24,2.24,0,0,1,231.18,12.6Zm-.09-2.36a7.74,7.74,0,0,1-1.72.4,4,4,0,0,0-.92.21.92.92,0,0,0-.42.34.93.93,0,0,0,.17,1.2,1.37,1.37,0,0,0,.93.28,2.18,2.18,0,0,0,1.08-.27,1.64,1.64,0,0,0,.7-.73,2.55,2.55,0,0,0,.17-1.05Z"/><path class="cls-2" d="M236.1,12.42l.15.93a3.91,3.91,0,0,1-.8.09,1.8,1.8,0,0,1-.89-.18,1,1,0,0,1-.45-.48,3.78,3.78,0,0,1-.13-1.25V8h-.77V7.14H234V5.6L235,5V7.14h1.06V8H235V11.6a1.84,1.84,0,0,0,.06.58.44.44,0,0,0,.18.21.7.7,0,0,0,.36.08A3.43,3.43,0,0,0,236.1,12.42Z"/><path class="cls-2" d="M237.14,6V4.78h1.05V6Zm0,7.38V7.14h1.05v6.22Z"/><path class="cls-2" d="M241.53,13.37l-2.37-6.22h1.11l1.34,3.73q.22.6.4,1.25.14-.49.39-1.18l1.38-3.8h1.08l-2.36,6.22Z"/><path class="cls-2" d="M250.06,11.36l1.09.13a2.66,2.66,0,0,1-1,1.48,3.24,3.24,0,0,1-3.95-.31,3.29,3.29,0,0,1-.8-2.36,3.44,3.44,0,0,1,.81-2.44,2.74,2.74,0,0,1,2.1-.87,2.66,2.66,0,0,1,2,.85,3.38,3.38,0,0,1,.79,2.39q0,.09,0,.28h-4.64a2.39,2.39,0,0,0,.58,1.57,1.73,1.73,0,0,0,1.3.54,1.61,1.61,0,0,0,1-.3A2,2,0,0,0,250.06,11.36Zm-3.46-1.71h3.47a2.11,2.11,0,0,0-.4-1.18,1.62,1.62,0,0,0-1.31-.61,1.68,1.68,0,0,0-1.22.49A1.92,1.92,0,0,0,246.59,9.66Z"/><path class="cls-2" d="M255.41,10.25a3.21,3.21,0,0,1,1-2.56,2.9,2.9,0,0,1,2-.69,2.79,2.79,0,0,1,2.1.84,3.2,3.2,0,0,1,.81,2.32,4.12,4.12,0,0,1-.36,1.89,2.55,2.55,0,0,1-1,1.07,3.05,3.05,0,0,1-1.5.38,2.8,2.8,0,0,1-2.11-.84A3.35,3.35,0,0,1,255.41,10.25Zm1.08,0A2.65,2.65,0,0,0,257,12a1.74,1.74,0,0,0,2.62,0,2.71,2.71,0,0,0,.52-1.82,2.57,2.57,0,0,0-.52-1.75,1.74,1.74,0,0,0-2.62,0A2.64,2.64,0,0,0,256.5,10.25Z"/><path class="cls-2" d="M262.73,13.37V8h-.93V7.14h.93V6.48a2.9,2.9,0,0,1,.11-.93,1.35,1.35,0,0,1,.54-.67,1.93,1.93,0,0,1,1.08-.25,5.16,5.16,0,0,1,1,.11l-.16.92a3.54,3.54,0,0,0-.62-.06.92.92,0,0,0-.68.21,1.11,1.11,0,0,0-.2.77v.57H265V8h-1.21v5.4Z"/><path class="cls-2" d="M265.85,13.37V8h-.93V7.14h.93V6.48a2.9,2.9,0,0,1,.11-.93,1.35,1.35,0,0,1,.54-.67,1.93,1.93,0,0,1,1.08-.25,5.16,5.16,0,0,1,1,.11l-.16.92a3.54,3.54,0,0,0-.62-.06.92.92,0,0,0-.68.21,1.11,1.11,0,0,0-.2.77v.57h1.21V8H266.9v5.4Z"/><path class="cls-2" d="M268.94,6V4.78H270V6Zm0,7.38V7.14H270v6.22Z"/><path class="cls-2" d="M275.66,11.09l1,.13a2.69,2.69,0,0,1-.87,1.68,2.53,2.53,0,0,1-1.72.61,2.67,2.67,0,0,1-2.05-.83,3.39,3.39,0,0,1-.78-2.39,4.33,4.33,0,0,1,.33-1.76,2.33,2.33,0,0,1,1-1.13A3,3,0,0,1,274.11,7a2.58,2.58,0,0,1,1.66.51A2.35,2.35,0,0,1,276.59,9l-1,.16a1.7,1.7,0,0,0-.52-.94,1.34,1.34,0,0,0-.9-.32,1.64,1.64,0,0,0-1.29.57,2.71,2.71,0,0,0-.5,1.81,2.8,2.8,0,0,0,.48,1.82,1.56,1.56,0,0,0,1.25.57,1.48,1.48,0,0,0,1-.38A1.89,1.89,0,0,0,275.66,11.09Z"/><path class="cls-2" d="M281.86,11.36l1.09.13A2.66,2.66,0,0,1,282,13a3.24,3.24,0,0,1-3.95-.31,3.29,3.29,0,0,1-.8-2.36,3.44,3.44,0,0,1,.81-2.44,2.74,2.74,0,0,1,2.1-.87,2.66,2.66,0,0,1,2,.85,3.38,3.38,0,0,1,.79,2.39q0,.09,0,.28h-4.64a2.39,2.39,0,0,0,.58,1.57,1.73,1.73,0,0,0,1.3.54,1.61,1.61,0,0,0,1-.3A2,2,0,0,0,281.86,11.36Zm-3.46-1.71h3.47a2.11,2.11,0,0,0-.4-1.18,1.62,1.62,0,0,0-1.31-.61,1.68,1.68,0,0,0-1.22.49A1.92,1.92,0,0,0,278.39,9.66Z"/><path class="cls-2" d="M283.85,11.51l1-.16a1.46,1.46,0,0,0,.49,1,1.71,1.71,0,0,0,1.12.33,1.65,1.65,0,0,0,1.08-.3.88.88,0,0,0,.35-.69.64.64,0,0,0-.31-.56,4.57,4.57,0,0,0-1.08-.36,9.84,9.84,0,0,1-1.61-.51A1.54,1.54,0,0,1,284,8.79a1.6,1.6,0,0,1,.19-.77,1.71,1.71,0,0,1,.52-.59,2.17,2.17,0,0,1,.67-.31,3.19,3.19,0,0,1,.91-.13,3.6,3.6,0,0,1,1.29.21,1.75,1.75,0,0,1,.82.57,2.23,2.23,0,0,1,.36,1l-1,.14a1.13,1.13,0,0,0-.41-.75,1.49,1.49,0,0,0-1-.27,1.72,1.72,0,0,0-1,.24.7.7,0,0,0-.31.56.58.58,0,0,0,.13.37.93.93,0,0,0,.4.28l.93.27a13,13,0,0,1,1.56.49,1.58,1.58,0,0,1,.69.55,1.55,1.55,0,0,1,.25.9,1.77,1.77,0,0,1-.31,1,2,2,0,0,1-.89.72,3.23,3.23,0,0,1-1.31.25,2.92,2.92,0,0,1-1.85-.5A2.34,2.34,0,0,1,283.85,11.51Z"/></g></g></svg>