<svg id='label_rakt' xmlns="http://www.w3.org/2000/svg" viewBox="0 0 223 118.5"><defs><style>.cls-1,.cls-2{fill:#fff;}.cls-1{stroke:#000;stroke-linecap:round;stroke-miterlimit:10;}</style></defs><title>label_rakt</title><g id="Layer_2" data-name="Layer 2"><g id="bgandline"><rect id="bg" x="100.5" width="122.5" height="18"/><line id="line" class="cls-1" x1="102.5" y1="16" x2="0.5" y2="118"/></g><g id="text"><path class="cls-2" d="M105.94,13.5V4.91h3.81a5.07,5.07,0,0,1,1.75.23,1.91,1.91,0,0,1,1,.82,2.44,2.44,0,0,1,.36,1.29,2.16,2.16,0,0,1-.59,1.54,3,3,0,0,1-1.83.8,3,3,0,0,1,.69.43,5.91,5.91,0,0,1,.94,1.14l1.49,2.34h-1.43l-1.14-1.79q-.5-.77-.82-1.18a2.58,2.58,0,0,0-.58-.57,1.71,1.71,0,0,0-.52-.23,3.41,3.41,0,0,0-.63,0h-1.32V13.5Zm1.14-4.8h2.44a3.66,3.66,0,0,0,1.22-.16,1.3,1.3,0,0,0,.67-.52,1.39,1.39,0,0,0,.23-.77,1.28,1.28,0,0,0-.44-1,2.07,2.07,0,0,0-1.4-.39h-2.72Z"/><path class="cls-2" d="M118.54,13.5v-.91a2.28,2.28,0,0,1-2,1.05,2.52,2.52,0,0,1-1-.21,1.69,1.69,0,0,1-.71-.53,2,2,0,0,1-.33-.78,5.36,5.36,0,0,1-.06-1V7.28h1.05v3.45a6.15,6.15,0,0,0,.06,1.11,1.1,1.1,0,0,0,.42.65,1.31,1.31,0,0,0,.8.24,1.74,1.74,0,0,0,.89-.24,1.35,1.35,0,0,0,.59-.66,3.32,3.32,0,0,0,.17-1.22V7.28h1.05V13.5Z"/><path class="cls-2" d="M123.43,12.56l.15.93a3.91,3.91,0,0,1-.8.09,1.8,1.8,0,0,1-.89-.18,1,1,0,0,1-.45-.48,3.78,3.78,0,0,1-.13-1.25V8.1h-.77V7.28h.77V5.74l1-.63V7.28h1.06V8.1h-1.06v3.64a1.84,1.84,0,0,0,.06.58.44.44,0,0,0,.18.21.7.7,0,0,0,.36.08A3.43,3.43,0,0,0,123.43,12.56Z"/><path class="cls-2" d="M124.46,13.5V4.91h1.05V8a2.36,2.36,0,0,1,1.86-.86,2.51,2.51,0,0,1,1.2.27,1.6,1.6,0,0,1,.73.75,3.47,3.47,0,0,1,.22,1.39V13.5h-1.05V9.56a1.63,1.63,0,0,0-.34-1.15,1.27,1.27,0,0,0-1-.36,1.71,1.71,0,0,0-.88.24,1.37,1.37,0,0,0-.59.66,3,3,0,0,0-.18,1.15v3.4Z"/><path class="cls-2" d="M133,13.5l3.3-8.59h1.22L141,13.5h-1.29l-1-2.6h-3.59l-.94,2.6ZM135.48,10h2.91l-.9-2.38q-.41-1.08-.61-1.78a11,11,0,0,1-.46,1.64Z"/><path class="cls-2" d="M142.11,13.5V12.3h1.2v1.2Z"/><path class="cls-2" d="M148.57,13.5V4.91h1.14V9.17L154,4.91h1.54l-3.6,3.48,3.76,5.11h-1.5l-3.06-4.35-1.41,1.37v3Z"/><path class="cls-2" d="M156.49,13.5V7.28h.95v.88a2.24,2.24,0,0,1,2-1,2.6,2.6,0,0,1,1,.2,1.63,1.63,0,0,1,.71.53,2,2,0,0,1,.33.78,6,6,0,0,1,.06,1V13.5h-1.05V9.71a2.84,2.84,0,0,0-.12-1,1,1,0,0,0-.44-.51,1.39,1.39,0,0,0-.74-.19,1.71,1.71,0,0,0-1.16.43,2.11,2.11,0,0,0-.49,1.62v3.4Z"/><path class="cls-2" d="M162.77,10.39a3.21,3.21,0,0,1,1-2.56,2.9,2.9,0,0,1,2-.69,2.79,2.79,0,0,1,2.1.84,3.2,3.2,0,0,1,.81,2.32,4.12,4.12,0,0,1-.36,1.89,2.55,2.55,0,0,1-1,1.07,3.05,3.05,0,0,1-1.5.38,2.8,2.8,0,0,1-2.11-.84A3.35,3.35,0,0,1,162.77,10.39Zm1.08,0a2.65,2.65,0,0,0,.52,1.79,1.74,1.74,0,0,0,2.62,0,2.71,2.71,0,0,0,.52-1.82A2.57,2.57,0,0,0,167,8.6a1.74,1.74,0,0,0-2.62,0A2.64,2.64,0,0,0,163.85,10.39Z"/><path class="cls-2" d="M169.81,13.5V4.91h1.05V13.5Z"/><path class="cls-2" d="M172.48,13.5V4.91h1.05V13.5Z"/><path class="cls-2" d="M180.6,13.5V5.92h-2.83v-1h6.81v1h-2.84V13.5Z"/><path class="cls-2" d="M185.61,13.5V4.91h1.05V8a2.36,2.36,0,0,1,1.86-.86,2.51,2.51,0,0,1,1.2.27,1.6,1.6,0,0,1,.73.75,3.47,3.47,0,0,1,.22,1.39V13.5h-1.05V9.56a1.63,1.63,0,0,0-.34-1.15,1.27,1.27,0,0,0-1-.36,1.71,1.71,0,0,0-.88.24,1.37,1.37,0,0,0-.59.66,3,3,0,0,0-.18,1.15v3.4Z"/><path class="cls-2" d="M196.55,11.5l1.09.13a2.66,2.66,0,0,1-1,1.48,3.24,3.24,0,0,1-3.95-.31,3.29,3.29,0,0,1-.8-2.36A3.44,3.44,0,0,1,192.74,8a2.74,2.74,0,0,1,2.1-.87,2.66,2.66,0,0,1,2,.85,3.38,3.38,0,0,1,.79,2.39q0,.09,0,.28H193a2.39,2.39,0,0,0,.58,1.57,1.73,1.73,0,0,0,1.3.54,1.61,1.61,0,0,0,1-.3A2,2,0,0,0,196.55,11.5Zm-3.46-1.71h3.47a2.11,2.11,0,0,0-.4-1.18A1.62,1.62,0,0,0,194.85,8a1.68,1.68,0,0,0-1.22.49A1.92,1.92,0,0,0,193.08,9.79Z"/><path class="cls-2" d="M203,12.73a3.93,3.93,0,0,1-1.13.7,3.26,3.26,0,0,1-1.16.21,2.26,2.26,0,0,1-1.58-.5,1.65,1.65,0,0,1-.55-1.28,1.7,1.7,0,0,1,.21-.83,1.72,1.72,0,0,1,.54-.61,2.56,2.56,0,0,1,.76-.35,7.54,7.54,0,0,1,.94-.16,9.64,9.64,0,0,0,1.88-.36q0-.22,0-.28a1.16,1.16,0,0,0-.3-.91,1.77,1.77,0,0,0-1.2-.36,1.86,1.86,0,0,0-1.1.26,1.59,1.59,0,0,0-.52.92l-1-.14A2.56,2.56,0,0,1,199.25,8a2,2,0,0,1,.93-.63,4.16,4.16,0,0,1,1.41-.22,3.74,3.74,0,0,1,1.29.19,1.71,1.71,0,0,1,.73.47,1.66,1.66,0,0,1,.33.72,5.94,5.94,0,0,1,.05,1v1.41a14.93,14.93,0,0,0,.07,1.86,2.35,2.35,0,0,0,.27.75h-1.1A2.24,2.24,0,0,1,203,12.73Zm-.09-2.36a7.74,7.74,0,0,1-1.72.4,4,4,0,0,0-.92.21.92.92,0,0,0-.42.34.93.93,0,0,0,.17,1.2,1.37,1.37,0,0,0,.93.28,2.18,2.18,0,0,0,1.08-.27,1.64,1.64,0,0,0,.7-.73,2.55,2.55,0,0,0,.17-1.05Z"/><path class="cls-2" d="M207.94,12.56l.15.93a3.91,3.91,0,0,1-.8.09,1.8,1.8,0,0,1-.89-.18,1,1,0,0,1-.45-.48,3.78,3.78,0,0,1-.13-1.25V8.1h-.77V7.28h.77V5.74l1-.63V7.28h1.06V8.1h-1.06v3.64a1.84,1.84,0,0,0,.06.58.44.44,0,0,0,.18.21.7.7,0,0,0,.36.08A3.43,3.43,0,0,0,207.94,12.56Z"/><path class="cls-2" d="M213.23,11.5l1.09.13a2.66,2.66,0,0,1-1,1.48,3.24,3.24,0,0,1-3.95-.31,3.29,3.29,0,0,1-.8-2.36A3.44,3.44,0,0,1,209.43,8a2.74,2.74,0,0,1,2.1-.87,2.66,2.66,0,0,1,2,.85,3.38,3.38,0,0,1,.79,2.39q0,.09,0,.28h-4.64a2.39,2.39,0,0,0,.58,1.57,1.73,1.73,0,0,0,1.3.54,1.61,1.61,0,0,0,1-.3A2,2,0,0,0,213.23,11.5Zm-3.46-1.71h3.47a2.11,2.11,0,0,0-.4-1.18A1.62,1.62,0,0,0,211.54,8a1.68,1.68,0,0,0-1.22.49A1.92,1.92,0,0,0,209.77,9.79Z"/><path class="cls-2" d="M215.63,13.5V7.28h.95v.94a2.57,2.57,0,0,1,.67-.87,1.17,1.17,0,0,1,.68-.21,2.06,2.06,0,0,1,1.08.34l-.36,1a1.51,1.51,0,0,0-.77-.23,1,1,0,0,0-.62.21,1.13,1.13,0,0,0-.39.58,4.11,4.11,0,0,0-.18,1.23V13.5Z"/></g></g></svg>