<svg xmlns="http://www.w3.org/2000/svg" viewBox="0 0 166 118.5"><defs><style>.cls-1,.cls-2{fill:#fff;}.cls-1{stroke:#000;stroke-linecap:round;stroke-miterlimit:10;}</style></defs><title>label_ag</title><g id="Layer_2" data-name="Layer 2"><g id="bgandline"><rect id="bg" x="100.5" width="65.5" height="18"/><line id="line" class="cls-1" x1="102.5" y1="16" x2="0.5" y2="118"/></g><g id="text"><path class="cls-2" d="M105,13.5l3.3-8.59h1.22L113,13.5h-1.29l-1-2.6h-3.59l-.94,2.6ZM107.46,10h2.91l-.9-2.38q-.41-1.08-.61-1.78a11,11,0,0,1-.46,1.64Z"/><path class="cls-2" d="M113.78,13.5V7.28h.95v.94a2.57,2.57,0,0,1,.67-.87,1.17,1.17,0,0,1,.68-.21,2.06,2.06,0,0,1,1.08.34l-.36,1a1.51,1.51,0,0,0-.77-.23,1,1,0,0,0-.62.21A1.13,1.13,0,0,0,115,9a4.11,4.11,0,0,0-.18,1.23V13.5Z"/><path class="cls-2" d="M120.09,12.56l.15.93a3.91,3.91,0,0,1-.8.09,1.8,1.8,0,0,1-.89-.18,1,1,0,0,1-.45-.48,3.78,3.78,0,0,1-.13-1.25V8.1h-.77V7.28H118V5.74l1-.63V7.28h1.06V8.1H119v3.64a1.84,1.84,0,0,0,.06.58.44.44,0,0,0,.18.21.7.7,0,0,0,.36.08A3.43,3.43,0,0,0,120.09,12.56Z"/><path class="cls-2" d="M128.61,10.13v-1h3.64V12.3a6.43,6.43,0,0,1-1.73,1,5.13,5.13,0,0,1-1.83.34,4.88,4.88,0,0,1-2.3-.54,3.58,3.58,0,0,1-1.56-1.57,4.94,4.94,0,0,1-.53-2.29,5.32,5.32,0,0,1,.52-2.34,3.49,3.49,0,0,1,1.51-1.61,4.73,4.73,0,0,1,2.27-.53,4.49,4.49,0,0,1,1.68.3,2.79,2.79,0,0,1,1.18.84,3.73,3.73,0,0,1,.65,1.41l-1,.28a3.17,3.17,0,0,0-.48-1,2,2,0,0,0-.82-.6,3,3,0,0,0-1.18-.23,3.49,3.49,0,0,0-1.35.24,2.52,2.52,0,0,0-.92.62,3,3,0,0,0-.54.85,4.5,4.5,0,0,0-.33,1.73,4.19,4.19,0,0,0,.4,1.92A2.53,2.53,0,0,0,127,12.25a3.56,3.56,0,0,0,1.61.38,3.81,3.81,0,0,0,1.44-.28,3.72,3.72,0,0,0,1.07-.61v-1.6Z"/><path class="cls-2" d="M137.85,12.73a3.93,3.93,0,0,1-1.13.7,3.26,3.26,0,0,1-1.16.21,2.26,2.26,0,0,1-1.58-.5,1.65,1.65,0,0,1-.55-1.28,1.7,1.7,0,0,1,.21-.83,1.72,1.72,0,0,1,.54-.61,2.56,2.56,0,0,1,.76-.35,7.54,7.54,0,0,1,.94-.16,9.64,9.64,0,0,0,1.88-.36q0-.22,0-.28a1.16,1.16,0,0,0-.3-.91,1.77,1.77,0,0,0-1.2-.36,1.86,1.86,0,0,0-1.1.26,1.59,1.59,0,0,0-.52.92l-1-.14A2.56,2.56,0,0,1,134.08,8a2,2,0,0,1,.93-.63,4.16,4.16,0,0,1,1.41-.22,3.74,3.74,0,0,1,1.29.19,1.71,1.71,0,0,1,.73.47,1.66,1.66,0,0,1,.33.72,5.94,5.94,0,0,1,.05,1v1.41a14.93,14.93,0,0,0,.07,1.86,2.35,2.35,0,0,0,.27.75h-1.1A2.24,2.24,0,0,1,137.85,12.73Zm-.09-2.36a7.74,7.74,0,0,1-1.72.4,4,4,0,0,0-.92.21.92.92,0,0,0-.42.34.93.93,0,0,0,.17,1.2,1.37,1.37,0,0,0,.93.28,2.18,2.18,0,0,0,1.08-.27,1.64,1.64,0,0,0,.7-.73,2.55,2.55,0,0,0,.17-1.05Z"/><path class="cls-2" d="M140.44,13.5V4.91h1.05V13.5Z"/><path class="cls-2" d="M143.11,13.5V4.91h1.05V13.5Z"/><path class="cls-2" d="M150.06,11.5l1.09.13a2.66,2.66,0,0,1-1,1.48,3.24,3.24,0,0,1-3.95-.31,3.29,3.29,0,0,1-.8-2.36A3.44,3.44,0,0,1,146.26,8a2.74,2.74,0,0,1,2.1-.87,2.66,2.66,0,0,1,2,.85,3.38,3.38,0,0,1,.79,2.39q0,.09,0,.28h-4.64a2.39,2.39,0,0,0,.58,1.57,1.73,1.73,0,0,0,1.3.54,1.61,1.61,0,0,0,1-.3A2,2,0,0,0,150.06,11.5ZM146.6,9.79h3.47a2.11,2.11,0,0,0-.4-1.18A1.62,1.62,0,0,0,148.37,8a1.68,1.68,0,0,0-1.22.49A1.92,1.92,0,0,0,146.6,9.79Z"/><path class="cls-2" d="M152.46,13.5V7.28h.95v.94a2.57,2.57,0,0,1,.67-.87,1.17,1.17,0,0,1,.68-.21,2.06,2.06,0,0,1,1.08.34l-.36,1a1.51,1.51,0,0,0-.77-.23,1,1,0,0,0-.62.21,1.13,1.13,0,0,0-.39.58,4.11,4.11,0,0,0-.18,1.23V13.5Z"/><path class="cls-2" d="M156.42,15.9l-.12-1a2.35,2.35,0,0,0,.6.09,1.16,1.16,0,0,0,.56-.12,1,1,0,0,0,.35-.33,5.17,5.17,0,0,0,.32-.79l.09-.26-2.36-6.23H157l1.29,3.6q.25.69.45,1.44a14.19,14.19,0,0,1,.43-1.42l1.33-3.63h1.05l-2.37,6.33a12.42,12.42,0,0,1-.59,1.41,2.08,2.08,0,0,1-.64.76,1.52,1.52,0,0,1-.87.24A2.11,2.11,0,0,1,156.42,15.9Z"/></g></g></svg>