<svg xmlns="http://www.w3.org/2000/svg" viewBox="0 0 187 118.5"><defs><style>.cls-1,.cls-2{fill:#fff;}.cls-1{stroke:#000;stroke-linecap:round;stroke-miterlimit:10;}</style></defs><title>label_rh</title><g id="Layer_2" data-name="Layer 2"><g id="bgandline"><rect id="bg" x="100.5" width="86.5" height="18"/><line id="line" class="cls-1" x1="102.5" y1="16" x2="0.5" y2="118"/></g><g id="text"><path class="cls-2" d="M105.69,14V5.41h3.81a5.07,5.07,0,0,1,1.75.23,1.91,1.91,0,0,1,1,.82,2.44,2.44,0,0,1,.36,1.29A2.16,2.16,0,0,1,112,9.29a3,3,0,0,1-1.83.8,3,3,0,0,1,.69.43,5.91,5.91,0,0,1,.94,1.14L113.26,14h-1.43l-1.14-1.79q-.5-.77-.82-1.18a2.58,2.58,0,0,0-.58-.57,1.71,1.71,0,0,0-.52-.23,3.41,3.41,0,0,0-.63,0h-1.32V14Zm1.14-4.8h2.44A3.66,3.66,0,0,0,110.49,9a1.3,1.3,0,0,0,.67-.52,1.39,1.39,0,0,0,.23-.77,1.28,1.28,0,0,0-.44-1,2.07,2.07,0,0,0-1.4-.39h-2.72Z"/><path class="cls-2" d="M118.47,12l1.09.13a2.66,2.66,0,0,1-1,1.48,3.24,3.24,0,0,1-3.95-.31,3.29,3.29,0,0,1-.8-2.36,3.44,3.44,0,0,1,.81-2.44,2.74,2.74,0,0,1,2.1-.87,2.66,2.66,0,0,1,2,.85,3.38,3.38,0,0,1,.79,2.39q0,.09,0,.28h-4.64a2.39,2.39,0,0,0,.58,1.57,1.73,1.73,0,0,0,1.3.54,1.61,1.61,0,0,0,1-.3A2,2,0,0,0,118.47,12ZM115,10.29h3.47a2.11,2.11,0,0,0-.4-1.18,1.62,1.62,0,0,0-1.31-.61,1.68,1.68,0,0,0-1.22.49A1.92,1.92,0,0,0,115,10.29Z"/><path class="cls-2" d="M120.88,14V5.41h1.05V8.49a2.36,2.36,0,0,1,1.86-.86,2.51,2.51,0,0,1,1.2.27,1.6,1.6,0,0,1,.73.75,3.47,3.47,0,0,1,.22,1.39V14h-1.05V10.06a1.63,1.63,0,0,0-.34-1.15,1.27,1.27,0,0,0-1-.36,1.71,1.71,0,0,0-.88.24,1.37,1.37,0,0,0-.59.66,3,3,0,0,0-.18,1.15V14Z"/><path class="cls-2" d="M131.81,12l1.09.13a2.66,2.66,0,0,1-1,1.48A3.24,3.24,0,0,1,128,13.3a3.29,3.29,0,0,1-.8-2.36A3.44,3.44,0,0,1,128,8.5a2.74,2.74,0,0,1,2.1-.87,2.66,2.66,0,0,1,2,.85,3.38,3.38,0,0,1,.79,2.39q0,.09,0,.28h-4.64a2.39,2.39,0,0,0,.58,1.57,1.73,1.73,0,0,0,1.3.54,1.61,1.61,0,0,0,1-.3A2,2,0,0,0,131.81,12Zm-3.46-1.71h3.47a2.11,2.11,0,0,0-.4-1.18,1.62,1.62,0,0,0-1.31-.61A1.68,1.68,0,0,0,128.9,9,1.92,1.92,0,0,0,128.35,10.29Z"/><path class="cls-2" d="M138.29,13.23a3.93,3.93,0,0,1-1.13.7,3.26,3.26,0,0,1-1.16.21,2.26,2.26,0,0,1-1.58-.5,1.65,1.65,0,0,1-.55-1.28,1.7,1.7,0,0,1,.21-.83,1.72,1.72,0,0,1,.54-.61,2.56,2.56,0,0,1,.76-.35,7.54,7.54,0,0,1,.94-.16,9.64,9.64,0,0,0,1.88-.36q0-.22,0-.28a1.16,1.16,0,0,0-.3-.91,1.77,1.77,0,0,0-1.2-.36,1.86,1.86,0,0,0-1.1.26,1.59,1.59,0,0,0-.52.92l-1-.14a2.56,2.56,0,0,1,.46-1.07,2,2,0,0,1,.93-.63,4.16,4.16,0,0,1,1.41-.22,3.74,3.74,0,0,1,1.29.19,1.71,1.71,0,0,1,.73.47,1.66,1.66,0,0,1,.33.72,5.94,5.94,0,0,1,.05,1v1.41a14.93,14.93,0,0,0,.07,1.86,2.35,2.35,0,0,0,.27.75h-1.1A2.24,2.24,0,0,1,138.29,13.23Zm-.09-2.36a7.74,7.74,0,0,1-1.72.4,4,4,0,0,0-.92.21.92.92,0,0,0-.42.34.93.93,0,0,0,.17,1.2,1.37,1.37,0,0,0,.93.28,2.18,2.18,0,0,0,1.08-.27,1.64,1.64,0,0,0,.7-.73,2.55,2.55,0,0,0,.17-1.05Z"/><path class="cls-2" d="M140.89,14V7.78h.95v.94a2.57,2.57,0,0,1,.67-.87,1.17,1.17,0,0,1,.68-.21,2.06,2.06,0,0,1,1.08.34l-.36,1a1.51,1.51,0,0,0-.77-.23,1,1,0,0,0-.62.21,1.13,1.13,0,0,0-.39.58,4.11,4.11,0,0,0-.18,1.23V14Z"/><path class="cls-2" d="M144.48,12.14l1-.16a1.46,1.46,0,0,0,.49,1,1.71,1.71,0,0,0,1.12.33,1.65,1.65,0,0,0,1.08-.3.88.88,0,0,0,.35-.69.64.64,0,0,0-.31-.56,4.57,4.57,0,0,0-1.08-.36,9.84,9.84,0,0,1-1.61-.51,1.54,1.54,0,0,1-.91-1.43,1.6,1.6,0,0,1,.19-.77,1.71,1.71,0,0,1,.52-.59,2.17,2.17,0,0,1,.67-.31,3.19,3.19,0,0,1,.91-.13,3.6,3.6,0,0,1,1.29.21,1.75,1.75,0,0,1,.82.57,2.23,2.23,0,0,1,.36,1l-1,.14a1.13,1.13,0,0,0-.41-.75,1.49,1.49,0,0,0-1-.27,1.72,1.72,0,0,0-1,.24.7.7,0,0,0-.31.56.58.58,0,0,0,.13.37.93.93,0,0,0,.4.28l.93.27a13,13,0,0,1,1.56.49,1.58,1.58,0,0,1,.69.55,1.55,1.55,0,0,1,.25.9,1.77,1.77,0,0,1-.31,1,2,2,0,0,1-.89.72,3.23,3.23,0,0,1-1.31.25,2.92,2.92,0,0,1-1.85-.5A2.34,2.34,0,0,1,144.48,12.14Z"/><path class="cls-2" d="M155,13.23a3.93,3.93,0,0,1-1.13.7,3.26,3.26,0,0,1-1.16.21,2.26,2.26,0,0,1-1.58-.5,1.65,1.65,0,0,1-.55-1.28,1.7,1.7,0,0,1,.21-.83,1.72,1.72,0,0,1,.54-.61,2.56,2.56,0,0,1,.76-.35,7.54,7.54,0,0,1,.94-.16,9.64,9.64,0,0,0,1.88-.36q0-.22,0-.28a1.16,1.16,0,0,0-.3-.91,1.77,1.77,0,0,0-1.2-.36,1.86,1.86,0,0,0-1.1.26,1.59,1.59,0,0,0-.52.92l-1-.14a2.56,2.56,0,0,1,.46-1.07,2,2,0,0,1,.93-.63,4.16,4.16,0,0,1,1.41-.22,3.74,3.74,0,0,1,1.29.19,1.71,1.71,0,0,1,.73.47,1.66,1.66,0,0,1,.33.72,5.94,5.94,0,0,1,.05,1v1.41a14.93,14.93,0,0,0,.07,1.86,2.35,2.35,0,0,0,.27.75h-1.1A2.24,2.24,0,0,1,155,13.23Zm-.09-2.36a7.74,7.74,0,0,1-1.72.4,4,4,0,0,0-.92.21.92.92,0,0,0-.42.34A.93.93,0,0,0,152,13a1.37,1.37,0,0,0,.93.28A2.18,2.18,0,0,0,154,13a1.64,1.64,0,0,0,.7-.73,2.55,2.55,0,0,0,.17-1.05Z"/><path class="cls-2" d="M157.55,14V5.41h1.05V14Z"/><path class="cls-2" d="M163.74,14V5.41h1.14V8.94h4.46V5.41h1.14V14h-1.14V10h-4.46v4Z"/><path class="cls-2" d="M176.3,13.23a3.93,3.93,0,0,1-1.13.7,3.26,3.26,0,0,1-1.16.21,2.26,2.26,0,0,1-1.58-.5,1.65,1.65,0,0,1-.55-1.28,1.7,1.7,0,0,1,.21-.83,1.72,1.72,0,0,1,.54-.61,2.56,2.56,0,0,1,.76-.35,7.54,7.54,0,0,1,.94-.16,9.64,9.64,0,0,0,1.88-.36q0-.22,0-.28a1.16,1.16,0,0,0-.3-.91,1.77,1.77,0,0,0-1.2-.36,1.86,1.86,0,0,0-1.1.26,1.59,1.59,0,0,0-.52.92l-1-.14a2.56,2.56,0,0,1,.46-1.07,2,2,0,0,1,.93-.63,4.16,4.16,0,0,1,1.41-.22,3.74,3.74,0,0,1,1.29.19,1.71,1.71,0,0,1,.73.47,1.66,1.66,0,0,1,.33.72,5.94,5.94,0,0,1,.05,1v1.41a14.93,14.93,0,0,0,.07,1.86,2.35,2.35,0,0,0,.27.75h-1.1A2.24,2.24,0,0,1,176.3,13.23Zm-.09-2.36a7.74,7.74,0,0,1-1.72.4,4,4,0,0,0-.92.21.92.92,0,0,0-.42.34.93.93,0,0,0,.17,1.2,1.37,1.37,0,0,0,.93.28,2.18,2.18,0,0,0,1.08-.27,1.64,1.64,0,0,0,.7-.73,2.55,2.55,0,0,0,.17-1.05Z"/><path class="cls-2" d="M178.89,14V5.41h1.05V14Z"/><path class="cls-2" d="M181.55,14V5.41h1.05V14Z"/></g></g></svg>