<svg xmlns="http://www.w3.org/2000/svg" viewBox="0 0 201 118.5"><defs><style>.cls-1,.cls-2{fill:#fff;}.cls-1{stroke:#000;stroke-linecap:round;stroke-miterlimit:10;}</style></defs><title>label_lar</title><g id="Layer_2" data-name="Layer 2"><g id="bgandline"><rect id="bg" x="100.5" width="100.5" height="18"/><line id="line" class="cls-1" x1="102.5" y1="16" x2="0.5" y2="118"/></g><g id="text"><path class="cls-2" d="M105.88,13.5V4.91H107v7.58h4.23v1Z"/><path class="cls-2" d="M112.07,10.39a3.21,3.21,0,0,1,1-2.56,2.9,2.9,0,0,1,2-.69,2.79,2.79,0,0,1,2.1.84,3.2,3.2,0,0,1,.81,2.32,4.12,4.12,0,0,1-.36,1.89,2.55,2.55,0,0,1-1,1.07,3.05,3.05,0,0,1-1.5.38,2.8,2.8,0,0,1-2.11-.84A3.35,3.35,0,0,1,112.07,10.39Zm1.08,0a2.65,2.65,0,0,0,.52,1.79,1.74,1.74,0,0,0,2.62,0,2.71,2.71,0,0,0,.52-1.82,2.57,2.57,0,0,0-.52-1.75,1.74,1.74,0,0,0-2.62,0A2.64,2.64,0,0,0,113.16,10.39Z"/><path class="cls-2" d="M123.18,13.5v-.79a1.94,1.94,0,0,1-1.74.93,2.44,2.44,0,0,1-1.37-.41,2.7,2.7,0,0,1-1-1.15,4,4,0,0,1-.34-1.69,4.42,4.42,0,0,1,.31-1.69A2.45,2.45,0,0,1,120,7.54a2.49,2.49,0,0,1,1.39-.4,2.08,2.08,0,0,1,1.72.86V4.91h1V13.5Zm-3.33-3.11a2.7,2.7,0,0,0,.5,1.79,1.52,1.52,0,0,0,1.19.59,1.49,1.49,0,0,0,1.17-.57,2.61,2.61,0,0,0,.48-1.73,2.93,2.93,0,0,0-.49-1.88,1.51,1.51,0,0,0-1.21-.6,1.46,1.46,0,0,0-1.17.57A2.83,2.83,0,0,0,119.84,10.39Z"/><path class="cls-2" d="M125.62,14l1,.15a1,1,0,0,0,.36.69,1.76,1.76,0,0,0,1.07.29,1.88,1.88,0,0,0,1.13-.29,1.44,1.44,0,0,0,.54-.82,6.74,6.74,0,0,0,.08-1.35,2.17,2.17,0,0,1-1.72.81,2.35,2.35,0,0,1-2-.93,3.57,3.57,0,0,1-.7-2.22,4.13,4.13,0,0,1,.32-1.64,2.58,2.58,0,0,1,.93-1.16,2.52,2.52,0,0,1,1.44-.41,2.23,2.23,0,0,1,1.82.89V7.28h1v5.38a5.1,5.1,0,0,1-.3,2.06,2.16,2.16,0,0,1-.94,1,3.25,3.25,0,0,1-1.58.35,3,3,0,0,1-1.8-.5A1.69,1.69,0,0,1,125.62,14Zm.87-3.74a2.7,2.7,0,0,0,.49,1.79,1.6,1.6,0,0,0,2.44,0,2.61,2.61,0,0,0,.49-1.75,2.55,2.55,0,0,0-.51-1.72A1.57,1.57,0,0,0,128.18,8a1.52,1.52,0,0,0-1.2.57A2.54,2.54,0,0,0,126.49,10.28Z"/><path class="cls-2" d="M136.75,11.5l1.09.13a2.66,2.66,0,0,1-1,1.48,3.24,3.24,0,0,1-3.95-.31,3.29,3.29,0,0,1-.8-2.36A3.44,3.44,0,0,1,132.94,8a2.74,2.74,0,0,1,2.1-.87,2.66,2.66,0,0,1,2,.85,3.38,3.38,0,0,1,.79,2.39q0,.09,0,.28h-4.64a2.39,2.39,0,0,0,.58,1.57,1.73,1.73,0,0,0,1.3.54,1.61,1.61,0,0,0,1-.3A2,2,0,0,0,136.75,11.5Zm-3.46-1.71h3.47a2.11,2.11,0,0,0-.4-1.18A1.62,1.62,0,0,0,135.05,8a1.68,1.68,0,0,0-1.22.49A1.92,1.92,0,0,0,133.28,9.79Z"/><path class="cls-2" d="M138.37,13.65l2.49-8.88h.84l-2.48,8.88Z"/><path class="cls-2" d="M141.69,13.5,145,4.91h1.22l3.52,8.59h-1.29l-1-2.6h-3.59l-.94,2.6ZM144.16,10h2.91l-.9-2.38q-.41-1.08-.61-1.78a11,11,0,0,1-.46,1.64Z"/><path class="cls-2" d="M150.5,13.5V7.28h.95v.88a2.24,2.24,0,0,1,2-1,2.6,2.6,0,0,1,1,.2,1.63,1.63,0,0,1,.71.53,2,2,0,0,1,.33.78,6,6,0,0,1,.06,1V13.5H154.5V9.71a2.84,2.84,0,0,0-.12-1,1,1,0,0,0-.44-.51,1.39,1.39,0,0,0-.74-.19,1.71,1.71,0,0,0-1.16.43,2.11,2.11,0,0,0-.49,1.62v3.4Z"/><path class="cls-2" d="M159.47,12.56l.15.93a3.91,3.91,0,0,1-.8.09,1.8,1.8,0,0,1-.89-.18,1,1,0,0,1-.45-.48,3.78,3.78,0,0,1-.13-1.25V8.1h-.77V7.28h.77V5.74l1-.63V7.28h1.06V8.1h-1.06v3.64a1.84,1.84,0,0,0,.06.58.44.44,0,0,0,.18.21.7.7,0,0,0,.36.08A3.43,3.43,0,0,0,159.47,12.56Z"/><path class="cls-2" d="M164.77,11.5l1.09.13a2.66,2.66,0,0,1-1,1.48A3.24,3.24,0,0,1,161,12.8a3.29,3.29,0,0,1-.8-2.36A3.44,3.44,0,0,1,161,8a2.74,2.74,0,0,1,2.1-.87,2.66,2.66,0,0,1,2,.85,3.38,3.38,0,0,1,.79,2.39q0,.09,0,.28h-4.64a2.39,2.39,0,0,0,.58,1.57,1.73,1.73,0,0,0,1.3.54,1.61,1.61,0,0,0,1-.3A2,2,0,0,0,164.77,11.5ZM161.3,9.79h3.47a2.11,2.11,0,0,0-.4-1.18A1.62,1.62,0,0,0,163.07,8a1.68,1.68,0,0,0-1.22.49A1.92,1.92,0,0,0,161.3,9.79Z"/><path class="cls-2" d="M170.5,13.5V7.28h.95v.94a2.57,2.57,0,0,1,.67-.87,1.17,1.17,0,0,1,.68-.21,2.06,2.06,0,0,1,1.08.34l-.36,1a1.51,1.51,0,0,0-.77-.23,1,1,0,0,0-.62.21,1.13,1.13,0,0,0-.39.58,4.11,4.11,0,0,0-.18,1.23V13.5Z"/><path class="cls-2" d="M174.12,10.39a3.21,3.21,0,0,1,1-2.56,2.9,2.9,0,0,1,2-.69,2.79,2.79,0,0,1,2.1.84,3.2,3.2,0,0,1,.81,2.32,4.12,4.12,0,0,1-.36,1.89,2.55,2.55,0,0,1-1,1.07,3.05,3.05,0,0,1-1.5.38,2.8,2.8,0,0,1-2.11-.84A3.35,3.35,0,0,1,174.12,10.39Zm1.08,0a2.65,2.65,0,0,0,.52,1.79,1.74,1.74,0,0,0,2.62,0,2.71,2.71,0,0,0,.52-1.82,2.57,2.57,0,0,0-.52-1.75,1.74,1.74,0,0,0-2.62,0A2.64,2.64,0,0,0,175.2,10.39Z"/><path class="cls-2" d="M180.79,10.39a3.21,3.21,0,0,1,1-2.56,2.9,2.9,0,0,1,2-.69,2.79,2.79,0,0,1,2.1.84,3.2,3.2,0,0,1,.81,2.32,4.12,4.12,0,0,1-.36,1.89,2.55,2.55,0,0,1-1,1.07,3.05,3.05,0,0,1-1.5.38,2.8,2.8,0,0,1-2.11-.84A3.35,3.35,0,0,1,180.79,10.39Zm1.08,0a2.65,2.65,0,0,0,.52,1.79,1.74,1.74,0,0,0,2.62,0,2.71,2.71,0,0,0,.52-1.82A2.57,2.57,0,0,0,185,8.6a1.74,1.74,0,0,0-2.62,0A2.64,2.64,0,0,0,181.88,10.39Z"/><path class="cls-2" d="M187.86,13.5V7.28h.94v.87a2.22,2.22,0,0,1,.78-.74,2.19,2.19,0,0,1,1.11-.28,2,2,0,0,1,1.13.29,1.54,1.54,0,0,1,.62.8,2.23,2.23,0,0,1,1.92-1.09,1.89,1.89,0,0,1,1.42.51,2.19,2.19,0,0,1,.5,1.58V13.5h-1V9.58a2.89,2.89,0,0,0-.1-.91.88.88,0,0,0-.37-.45,1.16,1.16,0,0,0-.63-.17,1.47,1.47,0,0,0-1.09.44,1.92,1.92,0,0,0-.43,1.4V13.5h-1.05v-4a1.78,1.78,0,0,0-.26-1.05,1,1,0,0,0-.84-.35,1.53,1.53,0,0,0-.82.23,1.33,1.33,0,0,0-.55.69,3.86,3.86,0,0,0-.17,1.3V13.5Z"/></g></g></svg>